<?xml version="1.0" encoding="utf-8"?>
<!-- Generator: Adobe Illustrator 26.5.0, SVG Export Plug-In . SVG Version: 6.00 Build 0)  -->
<svg version="1.1" id="Layer_1" xmlns="http://www.w3.org/2000/svg" xmlns:xlink="http://www.w3.org/1999/xlink" x="0px" y="0px"
	 viewBox="0 0 398.1 501.2" style="enable-background:new 0 0 398.1 501.2;" xml:space="preserve">
<style type="text/css">
	.st0{fill-rule:evenodd;clip-rule:evenodd;}
</style>
<g>
	<path class="st0" d="M265,89c-18.5,0-33.6,15.1-33.6,33.6c0,18.5,15.1,33.6,33.6,33.6s33.6-15.1,33.6-33.6
		C298.6,104.1,283.5,89,265,89z M265,100.2c12.4,0,22.4,9.9,22.4,22.4c0,12.4-10,22.4-22.4,22.4c-12.4,0-22.4-9.9-22.4-22.4
		C242.6,110.1,252.6,100.2,265,100.2z"/>
	<path class="st0" d="M222,9.4c-10.8,0-21.4,3.5-30.3,9.4c-11.9,7.9-21,20.3-23.3,35c-0.9,6-0.6,12.5,1.1,18.9
		c-7.2,0.3-14.2,2.1-20.5,6.1c-6.8,4.3-12.9,10.8-17.9,19.6c-25.7-27.1-56.5-27.2-75.8-12.2c-19.3,14.9-26.8,44.3-9.8,70.7
		c-17.4,8.1-28.3,18.8-33.8,30.4c-6.1,13.1-4.9,27.2,1.1,38.7c11,21.1,37.9,34.7,64.9,25.2c5.3,29.9,27.2,47,50.4,48.1
		c19.2,0.9,39.1-9,51.1-28.7c6.3,42.1,16,69.1,27.8,91.9c-43.2-0.5-60.3-19.1-80.2-36.1c-10.6-9-22-17.8-37.6-21.4
		c-4.9-1.1-10-1.7-15.8-1.8c-12.6-0.1-27.7,2.7-46,9.3l0,0c-2.6,1-4.1,3.7-3.6,6.4c0.6,2.7,3.1,4.6,5.8,4.4
		c13.7-0.8,25.9,6.5,38.5,17.7s25.1,26,39,38.5c13.9,12.5,29.7,23,48.7,23.8c17.6,0.8,37-7,59.1-26.6c8.3,14.1,17.4,27.7,27.1,43.8
		c0.1,0.2,0.2,0.4,0.3,0.5c10.6,17.5,22,38,33.9,66.3c0.4,1.6,1.5,2.9,2.9,3.7c1.5,0.7,3.2,0.8,4.7,0.1c1.5-0.7,2.7-1.9,3.1-3.5
		c0.5-1.6,0.2-3.3-0.6-4.7c-12.1-28.6-23.6-49.5-34.3-67.2c-7.2-20-11.7-37.1-14.2-51.6c21.4-40.6,47.7-46.9,73.9-56.9
		c13.2-5,26.2-10.9,37.3-22.6c11.1-11.7,19.7-28.9,24.9-55.6v0c0.3-1.7-0.1-3.4-1.3-4.7c-1.1-1.3-2.8-2-4.5-1.9
		c-2,0.1-3.8,1.2-4.7,3c-6.7,13.3-20.6,20.3-38.3,25.9c-17.7,5.6-38.7,9.5-57.1,17.9c-2.8,1.3-5.4,2.8-8.1,4.4
		c0.3-0.4,0.6-0.8,0.9-1.2c8.7-12.1,17.9-23.9,21.7-39.6c17.1-6.1,31.4-21.5,35.5-45c27,9.5,54-4.2,64.9-25.4
		c6-11.5,7.3-25.4,1.2-38.5c-5.4-11.7-16.5-22.3-33.9-30.4c17-26.4,9.5-55.8-9.8-70.7c-19.3-14.9-50-14.9-75.8,12.3
		c-8.3-13.8-19.9-21.7-32.2-24.5C229.2,9.8,225.6,9.3,222,9.4L222,9.4z M222,20.6c2.8,0,5.7,0.3,8.4,0.9c10.9,2.5,21.3,10,28.4,25.9
		c0.8,1.8,2.5,3,4.4,3.2s3.8-0.5,5.1-2c24.1-30.1,49.8-29.2,65.8-16.8c16,12.4,22.7,36.8,3.7,60.6c-1.1,1.4-1.5,3.2-1.1,5
		c0.5,1.7,1.7,3.1,3.4,3.8c19.4,7.7,29.7,17.8,34.3,27.6c4.6,9.9,3.7,19.9-0.9,28.7c-9.2,17.7-33.1,29.5-57.1,17.3v0
		c-1.7-0.8-3.6-0.8-5.2,0.1c-1.6,0.9-2.7,2.6-2.8,4.4c-2.4,30.4-21.1,44.5-40.9,45.3c-19.8,0.8-41-12.1-48.1-41.1
		c-0.7-2.8-3.4-4.6-6.3-4.2c-20.2,2.9-35.8-0.8-46-7.9c-0.2-0.2-0.5-0.4-0.7-0.5c-0.1-0.1-0.2-0.2-0.3-0.4v0
		c-0.1-0.1-0.2-0.1-0.4-0.2c-4-3.1-7.1-6.6-9.3-10.5v-0.2c-0.1-0.1-0.1-0.2-0.2-0.4v0c-0.2-0.3-0.4-0.6-0.7-0.9
		c-0.5-1.1-0.9-2.3-1.2-3.5c-2.6-8-1.7-17.2,4.2-26.6s16.8-18.9,33.9-26.6c1.7-0.7,2.9-2.3,3.3-4.1c0.4-1.8-0.2-3.7-1.5-5
		c-12.8-13.3-16-26-14.4-37.1c1.7-11.1,8.6-21.1,18.2-27.5C205,23.3,213.6,20.6,222,20.6L222,20.6z M170.5,83.7
		c1.2,0,2.3,0.1,3.5,0.2c1.9,3.6,4,7.3,6.8,10.9c-15.1,7.9-25.6,17.5-32,27.8c-6.3,10.1-8.4,20.8-6.6,30.8c-3.2-0.5-6.4-0.7-8.8-0.7
		c-18.3,0-33.2,15.1-33.2,33.4c0,8.8,2.8,17,8.6,23.1c5.7,6.1,14.2,9.8,24.5,10.1c18.5,0.6,35.1-13.9,36.2-33.8
		c10.9,4.8,24.5,6.9,40.1,5.4c5.2,16.7,15.1,29,26.9,36.4c-9,11.4-27.1,19-53.2,15.2l0,0c-2.9-0.4-5.6,1.4-6.3,4.2
		c-0.1,0.3-0.1,0.7-0.2,1.1c-0.1,0.2-0.1,0.3-0.2,0.5c-7.6,28.3-28.3,40.7-47.8,39.7c-19.8-1-38.6-15.4-40.9-45.5h0
		c-0.2-1.8-1.2-3.5-2.8-4.4c-1.6-0.9-3.6-1-5.2-0.1c-24,12.2-47.9,0.4-57.1-17.3c-4.6-8.8-5.5-18.8-0.9-28.7
		c4.6-9.9,14.9-20,34.3-27.6v0c1.6-0.6,2.9-2,3.4-3.7c0.5-1.7,0.1-3.5-0.9-4.9c-19.1-23.7-12.5-48.3,3.5-60.7
		c16-12.4,41.9-13.3,66,16.8h0c1.2,1.5,3.1,2.3,5.1,2s3.6-1.5,4.4-3.2c5-11.3,10.9-18.4,17.3-22.4C159.7,85.3,165,83.8,170.5,83.7
		L170.5,83.7z M133.4,163.9c2,0,5.3,0.2,8.2,0.7c2.5,0.5,4.6,1.3,5.4,1.8c2.7,4.6,6.4,8.7,10.9,12.2c3.3,18.1-9.9,30-24.3,29.6
		c-8-0.2-13.3-2.7-16.8-6.5c-3.5-3.8-5.4-9.1-5.4-15.6C111.4,173.8,121.2,163.9,133.4,163.9L133.4,163.9z M246.8,232.3
		c6.8,2.5,13.9,3.8,21,3.5c0.8-0.1,1.6-0.1,2.4-0.2c-3.8,10.5-10.6,19.7-18.2,30.3c-7.9,11-16.6,23.5-21.7,40.4
		c-0.1,0.4-0.2,0.7-0.3,1.1c-0.9,2.4-1.8,4.8-2.4,7.4c-4.3,16.5-3.9,37.6,2.4,65.1c-1.8-2.9-3.5-5.7-5.2-8.6c-1-1.8-2.1-3.6-3.1-5.4
		v0c-0.2-0.5-0.5-1-0.9-1.4c-14.5-25.9-25.5-55.2-32.2-109.9C215.5,256.7,236.3,247.4,246.8,232.3L246.8,232.3z M357.6,248.9
		c-4.4,12.7-10,21.6-16.3,28.2c-9.3,9.9-20.5,14.9-33.2,19.8c-22.6,8.6-49.9,16.5-71.9,49c-0.6-10.2,0.3-18.6,1.9-25.9v-0.2l0,0
		c0.5-0.7,0.9-1.4,1-2.3c0.6-2.9,1.3-5.6,2.1-8.2c6.3-14.8,17.7-23.3,31.9-29.8c16.6-7.5,37-11.6,55.6-17.5
		C339.1,258.8,349.2,254.8,357.6,248.9L357.6,248.9z M73.4,314.6c5,0,9.4,0.6,13.5,1.6c13,3,22.7,10,32.9,18.7
		c18.4,15.7,39.1,36.4,81.9,38.7c-17.9,14.4-32.7,19.3-45.3,18.7c-15.1-0.7-28.4-9.1-41.5-20.8c-13.1-11.8-25.5-26.7-39-38.7
		c-7.2-6.4-15-12-23.3-15.8C60.4,315.3,67.3,314.5,73.4,314.6L73.4,314.6z"/>
</g>
</svg>
