<?xml version="1.0" encoding="UTF-8"?>
<svg id="Layer_1" data-name="Layer 1" xmlns="http://www.w3.org/2000/svg" viewBox="0 0 550.36 550.26">
  <defs>
    <style>
      .cls-1 {
        fill: #edbee3;
      }
    </style>
  </defs>
  <path class="cls-1" d="M422.16,372.63c-85.91,85.64-237.98,21.32-236.48-100.08,0-36.34,14.18-71.25,39.54-97.28,25.36-26.04,59.87-41.14,96.2-42.09s71.59,12.31,98.29,36.97c3.73,3.57,9.56-1.68,6.4-5.78-33.72-45.22-88.5-72.96-145.05-72.55-239.52,7.61-239.52,354.93,0,362.53h0c28.88-.04,57.34-6.96,83.02-20.19,25.68-13.23,47.83-32.39,64.62-55.9,3-4.27-2.82-9.22-6.54-5.62h0Z"/>
  <path class="cls-1" d="M418.64,301.55c3.17,1.21,4.93-3.63,2.24-5.3-7.11-4.43-13.37-8.95-18.37-15.49,10.3-6.41,22.72-9.57,15.81-16.1-25.02-16.82-38.02-54.65-73.02-53.7h0c-1.37,.04-2.51,1.06-2.69,2.42-.18,1.36,.64,2.64,1.95,3.05,23.64,5.98,33.74,16.59,48.07,35.41-35.71-28-82.7-31.15-121.5-2.29,11.57-13.49,25.13-25.73,42.37-31.09,4.96-1.52,2.84-9.34-2.15-7.8-14.2,4.38-26.28,13.05-36.78,23.41-8.67,8.42-15.73,18.86-25.2,26.33-7.77,5.59-17.01,7.07-26.17,8.68-2.64,.59-2.24,4.18,0,4.96,5.55,1.93,12.35,1.19,18.82-1.09,.26,.13,8.18,3.55,17.25,8.71-4.88,6.06-10.88,10.37-17.66,14.59-2.66,1.66-.96,6.52,2.24,5.3,8.42-3.21,15.55-9.41,21.15-16.48,7.43,4.74,14.19,9.41,22.8,13.86-1.73,7.96-6.5,14.58-11.8,20.64-1.99,2.64,1.81,5.97,4.39,4.39,6.61-4.07,12.68-13.28,14.48-21.68h0c9.98,4.37,20.72,6.8,31.62,7.14,.06,6.38-.61,12.97,.62,19.24,.88,3.55,6.54,3.7,7.33,0,1.04-6.35,.2-12.89,.06-19.34h0c11.39-.41,22.59-3.03,32.99-7.7,1.62,8.57,7.83,18.15,14.61,22.32,2.57,1.59,6.38-1.75,4.39-4.39-5.58-6.24-10.21-13.18-12.06-21.42,8.09-4.45,14.71-9.39,22.34-13.99,5.68,7.44,13.06,14.05,21.85,17.39h0Zm-132.68-25.19c.71,5.14,2.47,10.08,5.18,14.5-12.72-6.7-24.8-16.08-36.88-21.71,12.94-5.66,25.2-15.66,38.84-22.45-5.75,8.87-8.41,20.21-7.14,29.66h0Zm80.79,16.02c1.66-3.52,2.46-26.37-3.73-18.42-4.2,16.95-29.18,14.79-30.29-2.89-.23-4.75,1.75-9.35,5.38-12.43,3.62-3.09,8.47-4.33,13.12-3.35,4.66,.98,8.61,4.05,10.68,8.34,.43,.88,1.25,1.51,2.2,1.71,.96,.2,1.96-.05,2.71-.67,3.38-3.91-.51-15.43-2.69-19.73,13.89,6.5,28.61,18.31,41.22,24.25-12.09,6.13-25.7,16.5-38.61,23.2h0Z"/>
  <path class="cls-1" d="M279.69,545.86v-44.87c.02-1.19-.44-2.34-1.28-3.2-.84-.85-1.98-1.33-3.17-1.33s-2.34,.48-3.17,1.33c-.84,.85-1.3,2-1.28,3.2v44.87c.15,5.86,8.76,5.88,8.91,0Z"/>
  <path class="cls-1" d="M270.79,4.4V49.27c.14,5.86,8.75,5.88,8.91,0V4.4c-.14-5.86-8.75-5.88-8.91,0Z"/>
  <path class="cls-1" d="M53.84,275.13c0-2.46-1.99-4.45-4.45-4.45H4.52c-1.2-.02-2.34,.44-3.2,1.28-.85,.84-1.33,1.98-1.33,3.17s.48,2.34,1.33,3.18c.85,.84,2,1.3,3.2,1.28H49.39c2.46,0,4.45-1.99,4.45-4.45h0Z"/>
  <path class="cls-1" d="M501.1,279.58h44.87c5.84-.09,5.86-8.8,0-8.91h-44.87c-5.84,.1-5.86,8.8,0,8.91Z"/>
  <path class="cls-1" d="M435.85,120.25c1.18,0,2.32-.46,3.15-1.3l69.77-69.77c4.08-4.11-2.14-10.41-6.3-6.3l-69.77,69.77c-1.25,1.29-1.61,3.18-.93,4.84,.68,1.65,2.29,2.74,4.07,2.76h0Z"/>
  <path class="cls-1" d="M48.02,509.93l69.77-69.77c4.08-4.11-2.14-10.41-6.3-6.3l-69.77,69.77c-4.06,4.19,2.07,10.38,6.3,6.3h0Z"/>
  <path class="cls-1" d="M502.46,509.93c4.11,4.08,10.41-2.15,6.3-6.3l-69.77-69.77c-4.11-4.08-10.41,2.14-6.3,6.3l69.77,69.77Z"/>
  <path class="cls-1" d="M111.49,118.95c4.11,4.09,10.41-2.15,6.3-6.3L48.02,42.89c-4.11-4.08-10.41,2.14-6.3,6.3L111.49,118.95Z"/>
  <path class="cls-1" d="M172.34,38.82l12.25,29.58c2.28,5.38,10.43,1.96,8.23-3.41l-12.25-29.58c-2.33-5.36-10.38-2.05-8.23,3.41h0Z"/>
  <path class="cls-1" d="M167.95,12.8c-6.1,1.32-4.29,10.43,1.85,9.31,6.1-1.32,4.29-10.43-1.85-9.31Z"/>
  <path class="cls-1" d="M365.97,483.02c-2.32-5.36-10.38-2.05-8.23,3.41l12.25,29.58c2.28,5.38,10.43,1.97,8.23-3.41l-12.25-29.58Z"/>
  <path class="cls-1" d="M385.29,537.51c5.13-3.55-.03-11.27-5.28-7.89-5.12,3.55,.03,11.27,5.28,7.89Z"/>
  <path class="cls-1" d="M486.28,192.57l29.58-12.25c5.36-2.32,2.04-10.38-3.41-8.23l-29.58,12.25c-5.38,2.39-2.05,10.34,3.41,8.23Z"/>
  <path class="cls-1" d="M529.16,169.55c1.32,6.1,10.43,4.29,9.31-1.85-1.32-6.1-10.43-4.29-9.31,1.85Z"/>
  <path class="cls-1" d="M38.67,377.97l29.58-12.25c5.36-2.32,2.04-10.38-3.41-8.23l-29.58,12.25c-5.38,2.39-2.05,10.34,3.4,8.23h0Z"/>
  <path class="cls-1" d="M13.77,385.04c3.55,5.13,11.27-.03,7.89-5.28-3.55-5.13-11.27,.03-7.89,5.28Z"/>
  <path class="cls-1" d="M375.82,32.6c-1.09-.45-2.32-.46-3.41,0-1.09,.45-1.96,1.32-2.41,2.41l-12.25,29.58c-.9,2.27,.18,4.83,2.43,5.77,2.25,.93,4.84-.12,5.8-2.36l12.25-29.58c.45-1.09,.45-2.32,0-3.41-.45-1.09-1.32-1.96-2.41-2.41h0Z"/>
  <path class="cls-1" d="M380.01,21.41c5.25,3.38,10.41-4.34,5.28-7.89-5.25-3.38-10.4,4.34-5.28,7.89Z"/>
  <path class="cls-1" d="M180.57,515.61l12.25-29.58c2.15-5.43-5.89-8.79-8.23-3.41l-12.25,29.58c-2.15,5.41,5.86,8.8,8.23,3.41h0Z"/>
  <path class="cls-1" d="M169.8,528.91c-6.14-1.12-7.95,7.99-1.85,9.31,6.14,1.12,7.95-7.99,1.85-9.31Z"/>
  <path class="cls-1" d="M514.56,378.31c4.73,.09,6.19-6.79,1.71-8.57l-29.58-12.25c-5.43-2.15-8.79,5.89-3.41,8.23l29.58,12.25c.54,.22,1.12,.34,1.7,.34h0Z"/>
  <path class="cls-1" d="M529.87,379.76c-3.38,5.25,4.34,10.41,7.89,5.28,3.38-5.25-4.34-10.41-7.89-5.28Z"/>
  <path class="cls-1" d="M35.66,180.31l29.58,12.25c5.4,2.16,8.8-5.88,3.41-8.23l-29.58-12.25c-5.43-2.16-8.79,5.89-3.41,8.22h0Z"/>
  <path class="cls-1" d="M13.06,167.7c-1.11,6.14,7.99,7.95,9.31,1.85,1.12-6.14-7.99-7.95-9.31-1.85Z"/>
</svg>